<svg id="Layer_1" data-name="Layer 1" xmlns="http://www.w3.org/2000/svg" viewBox="0 0 736.33 188.63"><defs><style>.cls-1{fill:#86ab68;}.cls-2{fill:#9cbb80;}.cls-3{fill:#bdcfac;}.cls-4{fill:#fff;}.cls-5{fill:#5b5f64;}.cls-6{fill:#5b6065;}</style></defs><title>llnode2</title><g id="_Grupo_" data-name="&lt;Grupo&gt;"><g id="_Grupo_2" data-name="&lt;Grupo&gt;"><path class="cls-1" d="M18.68,144.51l53.9,31.39s8.88,4.74,16.58,0C99.52,170,129.72,151.38,141.67,144c2.29-1.42,2.73-1,7.14-3.69,2.52-1.53,6.92-4.1,6.11-11.81.08-26.72.1-48.23.1-57.62a65.41,65.41,0,0,1,.54-7.53c.41-3.5-.22-10.2-8.93-16C134.19,39.08,87.17,13.6,87.17,13.6s-6.29-5.33-15.77,0C53,25.45,14.54,48,14.54,48S8,51.51,8,62.17l-.95,61.26a32.08,32.08,0,0,0,.38,6.4C8,132.64,8.05,138.32,18.68,144.51Z"/></g></g><g id="_Grupo_3" data-name="&lt;Grupo&gt;"><g id="_Grupo_4" data-name="&lt;Grupo&gt;"><path class="cls-2" d="M49.22,144.51l53.9,31.39s8.88,4.74,16.58,0c10.36-5.94,40.56-24.52,52.51-31.88,2.29-1.42,2.73-1,7.14-3.69,2.52-1.53,6.92-4.1,6.11-11.81.08-26.72.1-48.23.1-57.62a65.41,65.41,0,0,1,.54-7.53c.41-3.5-.22-10.2-8.93-16-12.44-8.29-59.46-33.77-59.46-33.77s-6.29-5.33-15.77,0C83.58,25.45,45.08,48,45.08,48s-6.52,3.56-6.52,14.22l-1,61.26a32.08,32.08,0,0,0,.38,6.4C38.5,132.64,38.59,138.32,49.22,144.51Z"/></g></g><g id="_Grupo_5" data-name="&lt;Grupo&gt;"><g id="_Grupo_6" data-name="&lt;Grupo&gt;"><path class="cls-3" d="M87.84,144.51l53.9,31.39s8.89,4.74,16.59,0c10.36-5.94,40.55-24.52,52.5-31.88,2.29-1.42,2.73-1,7.15-3.69,2.51-1.53,6.91-4.1,6.1-11.81.08-26.72.1-48.23.1-57.62a67.73,67.73,0,0,1,.54-7.53c.41-3.5-.22-10.2-8.93-16-12.44-8.29-59.46-33.77-59.46-33.77s-6.29-5.33-15.76,0C122.2,25.45,83.7,48,83.7,48s-6.52,3.56-6.52,14.22l-.94,61.26a32,32,0,0,0,.37,6.4C77.12,132.64,77.21,138.32,87.84,144.51Z"/></g></g><g id="_Grupo_7" data-name="&lt;Grupo&gt;"><path class="cls-4" d="M147.17,117.48a29.47,29.47,0,1,1,29.14-25.14h0A29.53,29.53,0,0,1,147.17,117.48Zm0-44.94a15.47,15.47,0,1,0,2.31.17A16.32,16.32,0,0,0,147.12,72.54Z"/></g><g id="_Grupo_8" data-name="&lt;Grupo&gt;"><rect class="cls-4" x="166.02" y="97.3" width="13.08" height="37.01" rx="6.54" ry="6.54" transform="translate(-30.83 158.46) rotate(-45.71)"/></g><g id="_Grupo_9" data-name="&lt;Grupo&gt;"><rect class="cls-5" x="250.88" y="21.96" width="23.76" height="144.48" rx="11.88" ry="11.88"/></g><g id="_Grupo_10" data-name="&lt;Grupo&gt;"><rect class="cls-5" x="290.11" y="21.96" width="23.76" height="144.48" rx="11.88" ry="11.88"/></g><g id="_Grupo_11" data-name="&lt;Grupo&gt;"><g id="_Grupo_12" data-name="&lt;Grupo&gt;"><path class="cls-6" d="M349.31,156.87V84.42c0-3.44.11-6.9,0-10.34-.13-4,1.31-3.73-.6-1.21l-8.54,4.9c-4.55.14-2.86-.77-.08,1a27.87,27.87,0,0,0,6.21,3.08,29.54,29.54,0,0,0,8.18,1.34c5.82.23,11.7,0,17.52,0,5.65,0,26.92-3.26,29.28,3.37,1.27,3.56,0,10,0,13.72v53.82c0,12.74,19.8,12.76,19.8,0V102c0-6.09.55-12.46-.24-18.53-1.74-13.41-13.78-19.75-26.23-20-10-.24-20,0-30,0-3.22,0-6.93.53-10.11,0-4.46-.74-7.55-4.65-12.16-5.3-18.25-2.58-12.81,31.77-12.81,41.78v57c0,12.74,19.8,12.76,19.8,0Z"/></g></g><g id="_Grupo_13" data-name="&lt;Grupo&gt;"><g id="_Grupo_14" data-name="&lt;Grupo&gt;"><path class="cls-6" d="M454.8,146V103.83c0-4.71-1.41-12.81,2.33-16.45,4.46-4.36,15.43-2.33,21-2.33,5.32,0,17.47-2.25,21,3,2.69,4,1.23,12,1.23,16.52v26.89c0,4.65,2,13.67-3.51,15.51-3.95,1.33-41.82.81-42-1-1.44-12.51-21.25-12.65-19.8,0,3.21,27.8,37.36,20.79,57.42,20.79,13.34,0,25.54-6.05,27.44-20.6,1.06-8.06.28-16.6.28-24.71,0-21.73,4.54-54.71-26.47-56.21-20.25-1-51.62-4.4-57.84,21.1-2.31,9.44-.83,20.56-.83,30.15V146C435,158.72,454.8,158.74,454.8,146Z"/></g></g><g id="_Grupo_15" data-name="&lt;Grupo&gt;"><g id="_Grupo_16" data-name="&lt;Grupo&gt;"><g id="_Grupo_17" data-name="&lt;Grupo&gt;"><path class="cls-6" d="M552.25,146V103.83c0-4.71-1.41-12.81,2.32-16.45,4.47-4.36,15.44-2.33,21-2.33,5.32,0,17.46-2.25,21,3,2.69,4,1.23,12,1.23,16.52v26.89c0,4.65,2,13.67-3.51,15.51-3.95,1.33-41.82.81-42-1-1.44-12.51-21.26-12.65-19.8,0,3.2,27.8,37.36,20.79,57.42,20.79,13.33,0,25.54-6.05,27.44-20.6,1.06-8.06.27-16.6.27-24.71,0-21.73,4.55-54.71-26.46-56.21-20.25-1-51.62-4.4-57.84,21.1-2.31,9.44-.83,20.56-.83,30.15V146C532.45,158.72,552.25,158.74,552.25,146Z"/></g></g><g id="_Grupo_18" data-name="&lt;Grupo&gt;"><g id="_Grupo_19" data-name="&lt;Grupo&gt;"><path class="cls-6" d="M617.58,106.06V18.29c0-12.74-19.79-12.77-19.79,0v87.77c0,12.74,19.79,12.76,19.79,0Z"/></g></g></g><g id="_Grupo_20" data-name="&lt;Grupo&gt;"><g id="_Grupo_21" data-name="&lt;Grupo&gt;"><path class="cls-6" d="M645.61,131.06,716.1,98.88c3.55-1.62,6.08-7.47,4.55-11.18-7.42-17.93-27.22-27.46-46.09-25.52-24.46,2.51-43,23.25-44.79,47.4-1.4,18.51,8.51,36.44,23.38,47,20.67,14.75,45.87,11.08,67.72,1.14,11.58-5.27,1.52-22.34-10-17.09-14,6.36-30.5,9.55-44.32,1.14-8.58-5.23-15.42-14.5-16.87-24.57-2.17-15.12,7.53-30.67,22.43-34.61a28.3,28.3,0,0,1,22.53,3.42,22.64,22.64,0,0,1,5.62,5.21c.76,1,3,5.81,1.3,1.71l4.54-11.18L635.62,114c-11.57,5.29-1.52,22.35,10,17.1Z"/></g></g></svg>